HIERARCHY
ROOT Hips
{
  OFFSET 0 98.0000 0
  CHANNELS 6 Xposition Yposition Zposition Zrotation Xrotation Yrotation
  JOINT SpineBase
  {
    OFFSET 0 8.0000 0
    CHANNELS 3 Zrotation Xrotation Yrotation
    JOINT SpineMid
    {
      OFFSET 0 12.0000 0
      CHANNELS 3 Zrotation Xrotation Yrotation
      JOINT SpineShoulder
      {
        OFFSET 0 12.0000 0
        CHANNELS 3 Zrotation Xrotation Yrotation
        JOINT Neck
        {
          OFFSET 0 16.0000 0
          CHANNELS 3 Zrotation Xrotation Yrotation
          JOINT Head
          {
            OFFSET 0 9.0000 1.0000
            CHANNELS 3 Zrotation Xrotation Yrotation
            End Site
            {
              OFFSET 0 18.0000 0
            }
          }
        }
        JOINT ClavicleLeft
        {
          OFFSET 3.0000 12.0000 0
          CHANNELS 3 Zrotation Xrotation Yrotation
          JOINT ShoulderLeft
          {
            OFFSET 13.0000 0 0
            CHANNELS 3 Zrotation Xrotation Yrotation
            JOINT ElbowLeft
            {
              OFFSET 27.0000 0 0
              CHANNELS 3 Zrotation Xrotation Yrotation
              JOINT WristLeft
              {
                OFFSET 25.0000 0 0
                CHANNELS 3 Zrotation Xrotation Yrotation
                End Site
                {
                  OFFSET 8.0000 0 0
                }
              }
            }
          }
        }
        JOINT ClavicleRight
        {
          OFFSET -3.0000 12.0000 0
          CHANNELS 3 Zrotation Xrotation Yrotation
          JOINT ShoulderRight
          {
            OFFSET -13.0000 0 0
            CHANNELS 3 Zrotation Xrotation Yrotation
            JOINT ElbowRight
            {
              OFFSET -27.0000 0 0
              CHANNELS 3 Zrotation Xrotation Yrotation
              JOINT WristRight
              {
                OFFSET -25.0000 0 0
                CHANNELS 3 Zrotation Xrotation Yrotation
                End Site
                {
                  OFFSET -8.0000 0 0
                }
              }
            }
          }
        }
      }
    }
  }
  JOINT HipLeft
  {
    OFFSET 9.0000 -6.0000 0
    CHANNELS 3 Zrotation Xrotation Yrotation
    JOINT KneeLeft
    {
      OFFSET 0 -43.0000 0
      CHANNELS 3 Zrotation Xrotation Yrotation
      JOINT AnkleLeft
      {
        OFFSET 0 -41.0000 0
        CHANNELS 3 Zrotation Xrotation Yrotation
        JOINT FootLeft
        {
          OFFSET 0 -7.0000 12.0000
          CHANNELS 3 Zrotation Xrotation Yrotation
          End Site
          {
            OFFSET 0 0 5.0000
          }
        }
      }
    }
  }
  JOINT HipRight
  {
    OFFSET -9.0000 -6.0000 0
    CHANNELS 3 Zrotation Xrotation Yrotation
    JOINT KneeRight
    {
      OFFSET 0 -43.0000 0
      CHANNELS 3 Zrotation Xrotation Yrotation
      JOINT AnkleRight
      {
        OFFSET 0 -41.0000 0
        CHANNELS 3 Zrotation Xrotation Yrotation
        JOINT FootRight
        {
          OFFSET 0 -7.0000 12.0000
          CHANNELS 3 Zrotation Xrotation Yrotation
          End Site
          {
            OFFSET 0 0 5.0000
          }
        }
      }
    }
  }
}
MOTION
Frames: 31
Frame Time: 0.0333333
0 98.0000 0 0 0 0 0 0 0 0 8.0000 0 0 0 0 0 5.0000 0 0 10.0000 0 0 0 0 -60.0000 0 0 0 0 -70.0000 15.0000 0 0 0 0 0 70.0000 0 0 0 0 75.0000 0 -15.0000 0 0 -20.0000 0 0 50.0000 0 0 10.0000 0 0 0 0 0 -20.0000 0 0 50.0000 0 0 0 0 0 0 0
0 98.6237 1.6667 0 0 1.0453 0 0 0 0 8.6272 0 0 0 -0.6272 0 4.9726 0 -0.5496 9.9302 3.1836 0 0 0 -59.9742 2.2629 -1.3073 0 0 -73.1359 14.9178 2.0906 0 0 0 0 69.9877 1.9644 0.7153 0 0 74.9178 0 -14.9178 0 0 -22.6132 0 0 52.6132 0 0 9.9452 0 0 0 0 0 -17.3868 0 0 47.3868 0 0 0 0 0 0 0
0 99.2202 3.3333 0 0 2.0791 0 0 0 0 9.2475 0 0 0 -1.2475 0 4.8907 0 -1.0731 9.7230 6.3286 0 0 0 -59.8977 4.4999 -2.6043 0 0 -76.2374 14.6722 4.1582 0 0 0 0 69.9514 3.9071 1.4244 0 0 74.6722 0 -14.6722 0 0 -25.1978 0 0 55.1978 0 0 9.7815 0 0 0 0 0 -14.8022 0 0 44.8022 0 0 0 0 0 0 0
0 99.7634 5.0000 0 0 3.0902 0 0 0 0 9.8541 0 0 0 -1.8541 0 4.7553 0 -1.5460 9.3852 9.3974 0 0 0 -59.7733 6.6853 -3.8803 0 0 -79.2705 14.2658 6.1803 0 0 0 0 69.8924 5.8063 2.1211 0 0 74.2658 0 -14.2658 0 0 -27.7254 0 0 57.7254 0 0 9.5106 0 0 0 0 0 -12.2746 0 0 42.2746 0 0 0 0 0 0 0
0 100.2294 6.6667 0 0 4.0674 0 0 0 0 10.4404 0 0 0 -2.4404 0 4.5677 0 -1.9467 8.9274 12.3541 0 0 0 -59.6057 8.7944 -5.1246 0 0 -82.2021 13.7032 8.1347 0 0 0 0 69.8131 7.6411 2.7989 0 0 73.7032 0 -13.7032 0 0 -30.1684 0 0 60.1684 0 0 9.1355 0 0 0 0 0 -9.8316 0 0 39.8316 0 0 0 0 0 0 0
0 100.5981 8.3333 0 0 5.0000 0 0 0 0 11.0000 0 0 0 -3.0000 0 4.3301 0 -2.2575 8.3630 15.1651 0 0 0 -59.4013 10.8036 -6.3253 0 0 -85.0000 12.9904 10.0000 0 0 0 0 69.7164 9.3913 3.4512 0 0 72.9904 0 -12.9904 0 0 -32.5000 0 0 62.5000 0 0 8.6603 0 0 0 0 0 -7.5000 0 0 37.5000 0 0 0 0 0 0 0
0 100.8532 10.0000 0 0 5.8779 0 0 0 0 11.5267 0 0 0 -3.5267 0 4.0451 0 -2.4656 7.7077 17.7997 0 0 0 -59.1682 12.6904 -7.4701 0 0 -87.6336 12.1353 11.7557 0 0 0 0 69.6065 11.0375 4.0712 0 0 72.1353 0 -12.1353 0 0 -34.6946 0 0 64.6946 0 0 8.0902 0 0 0 0 0 -5.3054 0 0 35.3054 0 0 0 0 0 0 0
0 100.9836 11.6667 0 0 6.6913 0 0 0 0 12.0148 0 0 0 -4.0148 0 3.7157 0 -2.5634 6.9777 20.2302 0 0 0 -58.9158 14.4344 -8.5462 0 0 -90.0739 11.1472 13.3826 0 0 0 0 69.4877 12.5619 4.6520 0 0 71.1472 0 -11.1472 0 0 -36.7283 0 0 66.7283 0 0 7.4314 0 0 0 0 0 -3.2717 0 0 33.2717 0 0 0 0 0 0 0
0 100.9836 13.3333 0 0 7.4314 0 0 0 0 12.4589 0 0 0 -4.4589 0 3.3457 0 -2.5484 6.1891 22.4321 0 0 0 -58.6548 16.0169 -9.5400 0 0 -92.2943 10.0370 14.8629 0 0 0 0 69.3652 13.9478 5.1864 0 0 70.0370 0 -10.0370 0 0 -38.5786 0 0 68.5786 0 0 6.6913 0 0 0 0 0 -1.4214 0 0 31.4214 0 0 0 0 0 0 0
0 100.8532 15.0000 0 0 8.0902 0 0 0 0 12.8541 0 0 0 -4.8541 0 2.9389 0 -2.4231 5.3567 24.3839 0 0 0 -58.3965 17.4214 -10.4378 0 0 -94.2705 8.8168 16.1803 0 0 0 0 69.2442 15.1802 5.6674 0 0 68.8168 0 -8.8168 0 0 -40.2254 0 0 70.2254 0 0 5.8779 0 0 0 0 0 0.2254 0 0 29.7746 0 0 0 0 0 0 0
0 100.5981 16.6667 0 0 8.6603 0 0 0 0 13.1962 0 0 0 -5.1962 0 2.5000 0 -2.1948 4.4936 26.0669 0 0 0 -58.1525 18.6337 -11.2259 0 0 -95.9808 7.5000 17.3205 0 0 0 0 69.1302 16.2460 6.0882 0 0 67.5000 0 -7.5000 0 0 -41.6506 0 0 71.6506 0 0 5.0000 0 0 0 0 0 1.6506 0 0 28.3494 0 0 0 0 0 0 0
0 100.2294 18.3333 0 0 9.1355 0 0 0 0 13.4813 0 0 0 -5.4813 0 2.0337 0 -1.8747 3.6102 27.4655 0 0 0 -57.9343 19.6417 -11.8915 0 0 -97.4064 6.1010 18.2709 0 0 0 0 69.0285 17.1338 6.4425 0 0 66.1010 0 -6.1010 0 0 -42.8386 0 0 72.8386 0 0 4.0674 0 0 0 0 0 2.8386 0 0 27.1614 0 0 0 0 0 0 0
0 99.7634 20.0000 0 0 9.5106 0 0 0 0 13.7063 0 0 0 -5.7063 0 1.5451 0 -1.4771 2.7146 28.5667 0 0 0 -57.7523 20.4356 -12.4227 0 0 -98.5317 4.6353 19.0211 0 0 0 0 68.9437 17.8341 6.7246 0 0 64.6353 0 -4.6353 0 0 -43.7764 0 0 73.7764 0 0 3.0902 0 0 0 0 0 3.7764 0 0 26.2236 0 0 0 0 0 0 0
0 99.2202 21.6667 0 0 9.7815 0 0 0 0 13.8689 0 0 0 -5.8689 0 1.0396 0 -1.0192 1.8122 29.3605 0 0 0 -57.6153 21.0080 -12.8099 0 0 -99.3444 3.1187 19.5630 0 0 0 0 68.8801 18.3396 6.9297 0 0 63.1187 0 -3.1187 0 0 -44.4537 0 0 74.4537 0 0 2.0791 0 0 0 0 0 4.4537 0 0 25.5463 0 0 0 0 0 0 0
0 98.6237 23.3333 0 0 9.9452 0 0 0 0 13.9671 0 0 0 -5.9671 0 0.5226 0 -0.5201 0.9067 29.8398 0 0 0 -57.5303 21.3535 -13.0453 0 0 -99.8357 1.5679 19.8904 0 0 0 0 68.8406 18.6451 7.0542 0 0 61.5679 0 -1.5679 0 0 -44.8630 0 0 74.8630 0 0 1.0453 0 0 0 0 0 4.8630 0 0 25.1370 0 0 0 0 0 0 0
0 98.0000 25.0000 0 0 10.0000 0 0 0 0 14.0000 0 0 0 -6.0000 0 0 0 0 0 30.0000 0 0 0 -57.5014 21.4690 -13.1243 0 0 -100.0000 0 20.0000 0 0 0 0 68.8272 18.7472 7.0960 0 0 60.0000 0 0 0 0 -45.0000 0 0 75.0000 0 0 0 0 0 0 0 0 5.0000 0 0 25.0000 0 0 0 0 0 0 0
0 97.3763 26.6667 0 0 9.9452 0 0 0 0 13.9671 0 0 0 -5.9671 0 -0.5226 0 0.5201 -0.9067 29.8398 0 0 0 -57.5303 21.3535 -13.0453 0 0 -99.8357 -1.5679 19.8904 0 0 0 0 68.8406 18.6451 7.0542 0 0 58.4321 0 1.5679 0 0 -44.8630 0 0 74.8630 0 0 -1.0453 0 0 0 0 0 4.8630 0 0 25.1370 0 0 0 0 0 0 0
0 96.7798 28.3333 0 0 9.7815 0 0 0 0 13.8689 0 0 0 -5.8689 0 -1.0396 0 1.0192 -1.8122 29.3605 0 0 0 -57.6153 21.0080 -12.8099 0 0 -99.3444 -3.1187 19.5630 0 0 0 0 68.8801 18.3396 6.9297 0 0 56.8813 0 3.1187 0 0 -44.4537 0 0 74.4537 0 0 -2.0791 0 0 0 0 0 4.4537 0 0 25.5463 0 0 0 0 0 0 0
0 96.2366 30.0000 0 0 9.5106 0 0 0 0 13.7063 0 0 0 -5.7063 0 -1.5451 0 1.4771 -2.7146 28.5667 0 0 0 -57.7523 20.4356 -12.4227 0 0 -98.5317 -4.6353 19.0211 0 0 0 0 68.9437 17.8341 6.7246 0 0 55.3647 0 4.6353 0 0 -43.7764 0 0 73.7764 0 0 -3.0902 0 0 0 0 0 3.7764 0 0 26.2236 0 0 0 0 0 0 0
0 95.7706 31.6667 0 0 9.1355 0 0 0 0 13.4813 0 0 0 -5.4813 0 -2.0337 0 1.8747 -3.6102 27.4655 0 0 0 -57.9343 19.6417 -11.8915 0 0 -97.4064 -6.1010 18.2709 0 0 0 0 69.0285 17.1338 6.4425 0 0 53.8990 0 6.1010 0 0 -42.8386 0 0 72.8386 0 0 -4.0674 0 0 0 0 0 2.8386 0 0 27.1614 0 0 0 0 0 0 0
0 95.4019 33.3333 0 0 8.6603 0 0 0 0 13.1962 0 0 0 -5.1962 0 -2.5000 0 2.1948 -4.4936 26.0669 0 0 0 -58.1525 18.6337 -11.2259 0 0 -95.9808 -7.5000 17.3205 0 0 0 0 69.1302 16.2460 6.0882 0 0 52.5000 0 7.5000 0 0 -41.6506 0 0 71.6506 0 0 -5.0000 0 0 0 0 0 1.6506 0 0 28.3494 0 0 0 0 0 0 0
0 95.1468 35.0000 0 0 8.0902 0 0 0 0 12.8541 0 0 0 -4.8541 0 -2.9389 0 2.4231 -5.3567 24.3839 0 0 0 -58.3965 17.4214 -10.4378 0 0 -94.2705 -8.8168 16.1803 0 0 0 0 69.2442 15.1802 5.6674 0 0 51.1832 0 8.8168 0 0 -40.2254 0 0 70.2254 0 0 -5.8779 0 0 0 0 0 0.2254 0 0 29.7746 0 0 0 0 0 0 0
0 95.0164 36.6667 0 0 7.4314 0 0 0 0 12.4589 0 0 0 -4.4589 0 -3.3457 0 2.5484 -6.1891 22.4321 0 0 0 -58.6548 16.0169 -9.5400 0 0 -92.2943 -10.0370 14.8629 0 0 0 0 69.3652 13.9478 5.1864 0 0 49.9630 0 10.0370 0 0 -38.5786 0 0 68.5786 0 0 -6.6913 0 0 0 0 0 -1.4214 0 0 31.4214 0 0 0 0 0 0 0
0 95.0164 38.3333 0 0 6.6913 0 0 0 0 12.0148 0 0 0 -4.0148 0 -3.7157 0 2.5634 -6.9777 20.2302 0 0 0 -58.9158 14.4344 -8.5462 0 0 -90.0739 -11.1472 13.3826 0 0 0 0 69.4877 12.5619 4.6520 0 0 48.8528 0 11.1472 0 0 -36.7283 0 0 66.7283 0 0 -7.4314 0 0 0 0 0 -3.2717 0 0 33.2717 0 0 0 0 0 0 0
0 95.1468 40.0000 0 0 5.8779 0 0 0 0 11.5267 0 0 0 -3.5267 0 -4.0451 0 2.4656 -7.7077 17.7997 0 0 0 -59.1682 12.6904 -7.4701 0 0 -87.6336 -12.1353 11.7557 0 0 0 0 69.6065 11.0375 4.0712 0 0 47.8647 0 12.1353 0 0 -34.6946 0 0 64.6946 0 0 -8.0902 0 0 0 0 0 -5.3054 0 0 35.3054 0 0 0 0 0 0 0
0 95.4019 41.6667 0 0 5.0000 0 0 0 0 11.0000 0 0 0 -3.0000 0 -4.3301 0 2.2575 -8.3630 15.1651 0 0 0 -59.4013 10.8036 -6.3253 0 0 -85.0000 -12.9904 10.0000 0 0 0 0 69.7164 9.3913 3.4512 0 0 47.0096 0 12.9904 0 0 -32.5000 0 0 62.5000 0 0 -8.6603 0 0 0 0 0 -7.5000 0 0 37.5000 0 0 0 0 0 0 0
0 95.7706 43.3333 0 0 4.0674 0 0 0 0 10.4404 0 0 0 -2.4404 0 -4.5677 0 1.9467 -8.9274 12.3541 0 0 0 -59.6057 8.7944 -5.1246 0 0 -82.2021 -13.7032 8.1347 0 0 0 0 69.8131 7.6411 2.7989 0 0 46.2968 0 13.7032 0 0 -30.1684 0 0 60.1684 0 0 -9.1355 0 0 0 0 0 -9.8316 0 0 39.8316 0 0 0 0 0 0 0
0 96.2366 45.0000 0 0 3.0902 0 0 0 0 9.8541 0 0 0 -1.8541 0 -4.7553 0 1.5460 -9.3852 9.3974 0 0 0 -59.7733 6.6853 -3.8803 0 0 -79.2705 -14.2658 6.1803 0 0 0 0 69.8924 5.8063 2.1211 0 0 45.7342 0 14.2658 0 0 -27.7254 0 0 57.7254 0 0 -9.5106 0 0 0 0 0 -12.2746 0 0 42.2746 0 0 0 0 0 0 0
0 96.7798 46.6667 0 0 2.0791 0 0 0 0 9.2475 0 0 0 -1.2475 0 -4.8907 0 1.0731 -9.7230 6.3286 0 0 0 -59.8977 4.4999 -2.6043 0 0 -76.2374 -14.6722 4.1582 0 0 0 0 69.9514 3.9071 1.4244 0 0 45.3278 0 14.6722 0 0 -25.1978 0 0 55.1978 0 0 -9.7815 0 0 0 0 0 -14.8022 0 0 44.8022 0 0 0 0 0 0 0
0 97.3763 48.3333 0 0 1.0453 0 0 0 0 8.6272 0 0 0 -0.6272 0 -4.9726 0 0.5496 -9.9302 3.1836 0 0 0 -59.9742 2.2629 -1.3073 0 0 -73.1359 -14.9178 2.0906 0 0 0 0 69.9877 1.9644 0.7153 0 0 45.0822 0 14.9178 0 0 -22.6132 0 0 52.6132 0 0 -9.9452 0 0 0 0 0 -17.3868 0 0 47.3868 0 0 0 0 0 0 0
0 98.0000 50.0000 0 0 0 0 0 0 0 8.0000 0 0 0 0 0 -5.0000 0 0 -10.0000 0 0 0 0 -60.0000 0 0 0 0 -70.0000 -15.0000 0 0 0 0 0 70.0000 0 0 0 0 45.0000 0 15.0000 0 0 -20.0000 0 0 50.0000 0 0 -10.0000 0 0 0 0 0 -20.0000 0 0 50.0000 0 0 0 0 0 0 0
